<mxfile host="app.diagrams.net" modified="2022-10-14T01:49:11.463Z" agent="5.0 (Macintosh; Intel Mac OS X 10_15_7) AppleWebKit/605.1.15 (KHTML, like Gecko) Version/16.0 Safari/605.1.15" etag="NpYpTYAR4wQkQ1NMnW-N" version="20.4.0" type="github">
  <diagram id="XPKDcz3jmvRQqg5b9kz9" name="第 1 页">
    <mxGraphModel dx="786" dy="522" grid="1" gridSize="10" guides="1" tooltips="1" connect="1" arrows="1" fold="1" page="1" pageScale="1" pageWidth="827" pageHeight="1169" math="0" shadow="0">
      <root>
        <mxCell id="0" />
        <mxCell id="1" parent="0" />
        <mxCell id="UXXO0kiPecKv-J_DsosJ-16" value="" style="group" vertex="1" connectable="0" parent="1">
          <mxGeometry x="100" y="190" width="140" height="150" as="geometry" />
        </mxCell>
        <mxCell id="UXXO0kiPecKv-J_DsosJ-6" value="" style="ellipse;whiteSpace=wrap;html=1;aspect=fixed;fillColor=#1ba1e2;strokeColor=#006EAF;fontColor=#ffffff;container=0;" vertex="1" parent="UXXO0kiPecKv-J_DsosJ-16">
          <mxGeometry x="20" y="20" width="30" height="30" as="geometry" />
        </mxCell>
        <mxCell id="UXXO0kiPecKv-J_DsosJ-7" value="" style="ellipse;whiteSpace=wrap;html=1;aspect=fixed;fillColor=#1ba1e2;strokeColor=#006EAF;fontColor=#ffffff;container=0;" vertex="1" parent="UXXO0kiPecKv-J_DsosJ-16">
          <mxGeometry x="20" y="100" width="30" height="30" as="geometry" />
        </mxCell>
        <mxCell id="UXXO0kiPecKv-J_DsosJ-8" value="" style="ellipse;whiteSpace=wrap;html=1;aspect=fixed;fillColor=#1ba1e2;strokeColor=#006EAF;fontColor=#ffffff;container=0;" vertex="1" parent="UXXO0kiPecKv-J_DsosJ-16">
          <mxGeometry x="100" y="60" width="30" height="30" as="geometry" />
        </mxCell>
        <mxCell id="UXXO0kiPecKv-J_DsosJ-13" value="" style="ellipse;whiteSpace=wrap;html=1;fillColor=none;container=0;" vertex="1" parent="UXXO0kiPecKv-J_DsosJ-16">
          <mxGeometry width="140" height="150" as="geometry" />
        </mxCell>
        <mxCell id="UXXO0kiPecKv-J_DsosJ-23" value="" style="group" vertex="1" connectable="0" parent="1">
          <mxGeometry x="324" y="190" width="160" height="150" as="geometry" />
        </mxCell>
        <mxCell id="UXXO0kiPecKv-J_DsosJ-18" value="" style="ellipse;whiteSpace=wrap;html=1;aspect=fixed;fillColor=#1ba1e2;strokeColor=#006EAF;fontColor=#ffffff;container=0;" vertex="1" parent="UXXO0kiPecKv-J_DsosJ-23">
          <mxGeometry x="40" y="20" width="30" height="30" as="geometry" />
        </mxCell>
        <mxCell id="UXXO0kiPecKv-J_DsosJ-19" value="" style="ellipse;whiteSpace=wrap;html=1;aspect=fixed;fillColor=#1ba1e2;strokeColor=#006EAF;fontColor=#ffffff;container=0;" vertex="1" parent="UXXO0kiPecKv-J_DsosJ-23">
          <mxGeometry x="40" y="100" width="30" height="30" as="geometry" />
        </mxCell>
        <mxCell id="UXXO0kiPecKv-J_DsosJ-20" value="" style="ellipse;whiteSpace=wrap;html=1;aspect=fixed;fillColor=#1ba1e2;strokeColor=#006EAF;fontColor=#ffffff;container=0;" vertex="1" parent="UXXO0kiPecKv-J_DsosJ-23">
          <mxGeometry x="120" y="60" width="30" height="30" as="geometry" />
        </mxCell>
        <mxCell id="UXXO0kiPecKv-J_DsosJ-21" value="" style="ellipse;whiteSpace=wrap;html=1;fillColor=none;container=0;" vertex="1" parent="UXXO0kiPecKv-J_DsosJ-23">
          <mxGeometry x="20" width="140" height="150" as="geometry" />
        </mxCell>
        <mxCell id="UXXO0kiPecKv-J_DsosJ-22" value="" style="ellipse;whiteSpace=wrap;html=1;fillColor=none;container=0;" vertex="1" parent="UXXO0kiPecKv-J_DsosJ-23">
          <mxGeometry width="90" height="150" as="geometry" />
        </mxCell>
        <mxCell id="UXXO0kiPecKv-J_DsosJ-24" value="" style="group" vertex="1" connectable="0" parent="1">
          <mxGeometry x="560" y="190" width="189.77" height="150" as="geometry" />
        </mxCell>
        <mxCell id="UXXO0kiPecKv-J_DsosJ-25" value="" style="ellipse;whiteSpace=wrap;html=1;aspect=fixed;fillColor=#1ba1e2;strokeColor=#006EAF;fontColor=#ffffff;container=0;" vertex="1" parent="UXXO0kiPecKv-J_DsosJ-24">
          <mxGeometry x="40" y="20" width="30" height="30" as="geometry" />
        </mxCell>
        <mxCell id="UXXO0kiPecKv-J_DsosJ-26" value="" style="ellipse;whiteSpace=wrap;html=1;aspect=fixed;fillColor=#1ba1e2;strokeColor=#006EAF;fontColor=#ffffff;container=0;" vertex="1" parent="UXXO0kiPecKv-J_DsosJ-24">
          <mxGeometry x="40" y="100" width="30" height="30" as="geometry" />
        </mxCell>
        <mxCell id="UXXO0kiPecKv-J_DsosJ-27" value="" style="ellipse;whiteSpace=wrap;html=1;aspect=fixed;fillColor=#1ba1e2;strokeColor=#006EAF;fontColor=#ffffff;container=0;" vertex="1" parent="UXXO0kiPecKv-J_DsosJ-24">
          <mxGeometry x="120" y="60" width="30" height="30" as="geometry" />
        </mxCell>
        <mxCell id="UXXO0kiPecKv-J_DsosJ-28" value="" style="ellipse;whiteSpace=wrap;html=1;fillColor=none;container=0;" vertex="1" parent="UXXO0kiPecKv-J_DsosJ-24">
          <mxGeometry x="20" width="140" height="150" as="geometry" />
        </mxCell>
        <mxCell id="UXXO0kiPecKv-J_DsosJ-29" value="" style="ellipse;whiteSpace=wrap;html=1;fillColor=none;container=0;" vertex="1" parent="UXXO0kiPecKv-J_DsosJ-24">
          <mxGeometry width="90" height="150" as="geometry" />
        </mxCell>
        <mxCell id="UXXO0kiPecKv-J_DsosJ-30" value="" style="ellipse;whiteSpace=wrap;html=1;fillColor=none;rotation=30;" vertex="1" parent="UXXO0kiPecKv-J_DsosJ-24">
          <mxGeometry x="19.77" y="-9.16" width="170" height="92.5" as="geometry" />
        </mxCell>
      </root>
    </mxGraphModel>
  </diagram>
</mxfile>
